<svg xmlns="http://www.w3.org/2000/svg" width="984.997" height="250.627" viewBox="0 0 984.997 250.627">
  <g>
    <path d="M412.313,56.485c-41.647,0-67.615,30.793-67.615,68.325,0,35.646,24.313,67.918,66.482,67.918,45.826,0,67.57-33.593,67.57-68.139C478.75,89.766,455.057,56.485,412.313,56.485Zm-.478,120.026c-30.726,0-47.895-25.731-47.895-51.7,0-27.891,15.478-52.108,47.195-52.108,30.716,0,48.3,24.172,48.3,52.215C459.437,152.773,443.959,176.511,411.835,176.511Z" fill="#fff"/>
    <path d="M571.452,56.485c-27.784,0-43.536,13.229-51.2,27.706,0-11.264-.292-20.029-.806-24.111H501.3c.256,10.784.256,21.6.256,32.387V246.4h18.694V167.837c7.269,12.1,19,24.891,47.547,24.891,35.513,0,63.65-29.033,63.65-70.264C631.446,85.207,606.708,56.485,571.452,56.485Zm-5.664,119.593c-30.911,0-46.123-22.1-46.123-50.79,0-28.989,14.451-52.224,46.636-52.224,31.762,0,45.831,25.7,45.831,49.975C612.132,150.328,596.885,176.078,565.788,176.078Z" fill="#fff"/>
    <path d="M684.67,17.358H665.941V60.08H639.476v15.6h26.465v77.9c0,25.49,7.765,36.8,32.8,36.8,6.728,0,12.571-.141,18.024-2.195V173.722c-3.816.992-9.438,1.213-13.255,1.213-14.574,0-18.842-7.092-18.842-23.154v-76.1h34.912V60.08H684.67Z" fill="#fff"/>
    <rect x="743.391" y="57.363" width="18.73" height="131.77" fill="#fff"/>
    <path d="M939.542,56.485C913.9,56.485,901.8,70.7,894.865,82.41c-5.8-15.655-19.054-25.925-39.834-25.925-23.419,0-36,12.565-42.49,24.243a177.384,177.384,0,0,0-.62-20.648H793.732c.257,11.111.257,22.188.257,33.3v95.754h18.623V120.942c0-26.608,10.253-48.019,37.172-48.019,24.926,0,30.432,19.011,30.432,35.356v80.854h18.623V118.542c0-30.061,14.858-45.619,37.358-45.619,25.032,0,30.212,20.365,30.212,36.684v79.526H985V108.8C985,70.775,964.465,56.485,939.542,56.485Z" fill="#fff"/>
    <circle cx="752.756" cy="15.288" r="15.288" transform="translate(51.45 289.231) rotate(-22.5)" fill="#fff"/>
    <path d="M121.376,7.875a121.376,121.376,0,0,0-85.826,207.2A121.376,121.376,0,0,0,207.2,43.425,120.581,120.581,0,0,0,121.376,7.875ZM20.437,129.251a101.637,101.637,0,0,1,.536-10.42c11.5-2.011,20.724-7.176,29.708-12.208,12.493-7,25.411-33.671,46.487-33.671,13.46,0,24.655,23.907,35.23,33.5,9.845,8.933,17.853,21.169,25.6,33,3.726,5.692,7.486,11.432,11.477,16.82a165.518,165.518,0,0,1-15.1-10.538c-15.465-11.683-32.994-31.924-69.338-31.924-12.949,0-29.677,11.5-49.719,20.383-5.341,2.366-10.181,4.721-14.2,6.771A101.662,101.662,0,0,1,20.437,129.251Zm7.524,38.222q-1.87-4.554-3.3-9.32c4.382-2.33,10.6-5.48,17.663-8.6,17.549-7.759,32.319-18.861,42.714-18.861,30.688,0,43.886,16.97,59.168,28.515,3.62,2.735,7.353,5.554,11.412,8.271Zm93.415,62.717a100.929,100.929,0,0,1-84.534-45.845H205.91A100.929,100.929,0,0,1,121.376,230.19Zm93.1-61.934v-.783c-17.975,0-29.275-17.265-42.358-37.255-8.325-12.721-16.934-25.875-28.377-36.258C130.06,81.55,114.827,56.08,97.168,56.08c-25.479,0-41.021,28.142-54.733,35.823-6.13,3.433-11.771,6.591-17.826,8.621a100.939,100.939,0,1,1,189.862,67.732Z" fill="#fff"/>
  </g>
</svg>
