<?xml version="1.0" encoding="utf-8"?>
<!-- Generator: Adobe Illustrator 26.2.1, SVG Export Plug-In . SVG Version: 6.00 Build 0)  -->
<svg version="1.1" id="Capa_1" xmlns="http://www.w3.org/2000/svg" xmlns:xlink="http://www.w3.org/1999/xlink" x="0px" y="0px"
	 viewBox="0 0 230.73 204.22" style="enable-background:new 0 0 230.73 204.22;" xml:space="preserve">
<style type="text/css">
	.st0{fill:#00CCAE;}
	.st1{fill:none;stroke:#00CCAE;stroke-width:2;stroke-linecap:round;stroke-linejoin:round;stroke-miterlimit:10;}
</style>
<g>
	<g>
		<path class="st0" d="M118.44,177.8c-1.95,0-3.54-1.58-3.54-3.54V65c0-1.95,1.58-3.54,3.54-3.54c1.95,0,3.54,1.58,3.54,3.54v109.26
			C121.97,176.21,120.39,177.8,118.44,177.8z"/>
	</g>
	<g>
		<path class="st0" d="M181.43,117.75h-20.62c-1.95,0-3.54-1.58-3.54-3.54s1.58-3.54,3.54-3.54h20.62c9.35,0,16.96-7.61,16.96-16.96
			s-7.61-16.96-16.96-16.96c-0.04,0-0.5,0.03-0.54,0.03c-1.09,0.08-2.19-0.44-2.89-1.31c-0.7-0.87-0.95-2.02-0.67-3.1
			c0.37-1.44,0.56-2.87,0.56-4.25c0-10.78-10.19-19.34-21.32-16.37c-1.15,0.3-2.38,0.01-3.27-0.78c-0.89-0.79-1.32-1.98-1.14-3.16
			c0.12-0.82,0.21-1.65,0.21-2.5c0-9.35-7.61-16.96-16.96-16.96c-7.27,0-13.73,4.64-16.06,11.54c-0.41,1.22-1.45,2.11-2.71,2.35
			c-1.25,0.24-2.55-0.23-3.37-1.22c-3.24-3.92-8-6.16-13.08-6.16c-9.35,0-16.96,7.61-16.96,16.96c0,0.97,0.1,1.96,0.29,3.03
			c0.25,1.36-0.31,2.73-1.44,3.53c-1.13,0.8-2.61,0.86-3.8,0.17c-2.59-1.5-5.52-2.29-8.48-2.29c-9.35,0-16.96,7.61-16.96,16.96
			c0,1.95-1.58,3.54-3.54,3.54c-9.35,0-16.96,7.61-16.96,16.96s7.61,16.96,16.96,16.96h19.47c1.95,0,3.54,1.58,3.54,3.54
			s-1.58,3.54-3.54,3.54H49.3c-13.25,0-24.03-10.78-24.03-24.03c0-12.13,9.03-22.19,20.72-23.81c1.62-11.69,11.68-20.72,23.81-20.72
			c2.18,0,4.34,0.3,6.43,0.89c0.9-12.44,11.31-22.29,23.97-22.29c5.39,0,10.53,1.79,14.7,5.02c4.3-7.05,12-11.52,20.51-11.52
			c12.86,0,23.39,10.15,24.01,22.86c13.88-0.89,25.55,10.23,25.55,23.98c0,0.6-0.02,1.2-0.07,1.81
			c11.61,1.68,20.57,11.71,20.57,23.78C205.46,106.97,194.68,117.75,181.43,117.75z"/>
	</g>
	<g>
		<circle class="st0" cx="154.8" cy="88.62" r="9.98"/>
	</g>
	<g>
		<circle class="st0" cx="81.92" cy="86.66" r="9.98"/>
	</g>
	<g>
		<circle class="st0" cx="118.25" cy="172.96" r="9.98"/>
	</g>
	<g>
		<circle class="st0" cx="118.25" cy="63.17" r="9.98"/>
	</g>
	<g>
		<path class="st0" d="M118.44,118.94c-0.77,0-1.55-0.25-2.19-0.76L79.74,89.44c-1.54-1.21-1.8-3.43-0.59-4.96
			c1.21-1.53,3.44-1.8,4.96-0.59l34.4,27.08l34.2-25.19c1.57-1.16,3.78-0.82,4.94,0.75c1.16,1.57,0.82,3.78-0.75,4.94l-36.37,26.78
			C119.91,118.71,119.17,118.94,118.44,118.94z"/>
	</g>
</g>
</svg>
