<?xml version="1.0" encoding="utf-8"?>
<!-- Generator: Adobe Illustrator 26.2.1, SVG Export Plug-In . SVG Version: 6.00 Build 0)  -->
<svg version="1.1" id="Capa_1" xmlns="http://www.w3.org/2000/svg" xmlns:xlink="http://www.w3.org/1999/xlink" x="0px" y="0px"
	 viewBox="0 0 549.73 309.22" style="enable-background:new 0 0 549.73 309.22;" xml:space="preserve">
<style type="text/css">
	.st0{fill:#0C183F;}
	.st1{fill:#00CCAE;}
	.st2{fill:none;stroke:#00CCAE;stroke-width:2;stroke-linecap:round;stroke-linejoin:round;stroke-miterlimit:10;}
</style>
<g>
	<g>
		<path class="st0" d="M104.46,201.14H91.84v21.74H68.7v-81.81h37.4c7.4,0,13.83,1.23,19.28,3.68c5.45,2.45,9.66,5.96,12.62,10.52
			c2.96,4.56,4.44,9.92,4.44,16.07c0,5.92-1.38,11.08-4.15,15.49c-2.77,4.4-6.72,7.85-11.86,10.34l17.65,25.71H119.3L104.46,201.14z
			 M115.45,162.46c-2.42-2.1-6-3.15-10.75-3.15H91.84v23.96h12.85c4.75,0,8.33-1.03,10.75-3.1c2.41-2.06,3.62-5.01,3.62-8.82
			C119.07,167.53,117.86,164.56,115.45,162.46z"/>
		<path class="st0" d="M169.5,219.03c-6.9-3.66-12.31-8.72-16.24-15.19c-3.94-6.46-5.9-13.75-5.9-21.85c0-8.1,1.97-15.39,5.9-21.85
			c3.93-6.46,9.35-11.53,16.24-15.19c6.89-3.66,14.67-5.49,23.31-5.49c8.65,0,16.42,1.83,23.32,5.49
			c6.9,3.66,12.31,8.73,16.24,15.19c3.94,6.47,5.9,13.75,5.9,21.85c0,8.11-1.97,15.39-5.9,21.85c-3.93,6.47-9.35,11.53-16.24,15.19
			c-6.89,3.66-14.67,5.49-23.32,5.49C184.17,224.52,176.39,222.69,169.5,219.03z M204.03,202.43c3.35-1.95,6-4.69,7.95-8.24
			c1.94-3.55,2.92-7.61,2.92-12.21c0-4.6-0.98-8.67-2.92-12.21c-1.95-3.55-4.6-6.29-7.95-8.24c-3.35-1.95-7.09-2.92-11.22-2.92
			c-4.13,0-7.87,0.97-11.22,2.92c-3.35,1.95-6,4.69-7.95,8.24c-1.95,3.55-2.92,7.62-2.92,12.21c0,4.6,0.97,8.67,2.92,12.21
			c1.94,3.55,4.6,6.29,7.95,8.24c3.35,1.95,7.09,2.92,11.22,2.92C196.94,205.35,200.68,204.38,204.03,202.43z"/>
		<path class="st0" d="M320.67,187.88c2.65,3.47,3.97,7.66,3.97,12.56c0,7.17-2.88,12.7-8.64,16.6c-5.77,3.9-14.11,5.84-25.01,5.84
			h-44.18v-81.81h41.84c10.44,0,18.39,1.93,23.84,5.78s8.18,9.06,8.18,15.6c0,3.9-0.95,7.38-2.86,10.46
			c-1.91,3.08-4.61,5.51-8.12,7.31C314.36,181.86,318.02,184.41,320.67,187.88z M269.71,157.79v15.78h15.89
			c7.79,0,11.69-2.65,11.69-7.95c0-5.22-3.89-7.83-11.69-7.83H269.71z M301.27,197.87c0-5.53-4.05-8.3-12.15-8.3h-19.4v16.6h19.4
			C297.22,206.17,301.27,203.4,301.27,197.87z"/>
		<path class="st0" d="M337.88,141.07h23.14v63.46h39.03v18.35h-62.18V141.07z"/>
		<path class="st0" d="M480.86,205v17.88h-65.68v-81.81h64.16v17.88h-41.26v13.79h36.35v17.3h-36.35V205H480.86z"/>
	</g>
	<g>
		<path class="st1" d="M204.98,235.86h14.82v32.47h19.85v11.49h-34.66V235.86z"/>
		<path class="st1" d="M277.45,272.15h-16.7l-2.95,7.66h-15.07l19.22-43.96h14.57l19.22,43.96H280.4L277.45,272.15z M273.37,261.48
			l-4.27-11.05l-4.27,11.05H273.37z"/>
		<path class="st1" d="M342.44,261.04c1.42,1.84,2.14,4.06,2.14,6.66c0,3.85-1.59,6.83-4.77,8.95c-3.18,2.12-7.78,3.17-13.81,3.17
			h-24.74v-43.96h23.49c5.86,0,10.29,1.05,13.28,3.14c2.99,2.09,4.49,4.88,4.49,8.35c0,2.05-0.51,3.89-1.54,5.53
			c-1.03,1.63-2.55,2.95-4.55,3.96C339.01,257.8,341.02,259.2,342.44,261.04z M315.82,246.22v6.53h6.91c3.22,0,4.83-1.09,4.83-3.26
			c0-2.18-1.61-3.26-4.83-3.26H315.82z M329.63,266c0-2.3-1.63-3.45-4.9-3.45h-8.92v6.91h8.92C328,269.45,329.63,268.3,329.63,266z"
			/>
	</g>
</g>
<g>
	<g>
		<path class="st1" d="M388.42,186.81c-1.95,0-3.54-1.58-3.54-3.54V74.02c0-1.95,1.58-3.54,3.54-3.54s3.54,1.58,3.54,3.54v109.26
			C391.96,185.23,390.38,186.81,388.42,186.81z"/>
	</g>
	<g>
		<path class="st1" d="M451.41,126.76H430.8c-1.95,0-3.54-1.58-3.54-3.54s1.58-3.54,3.54-3.54h20.62c9.35,0,16.96-7.61,16.96-16.96
			s-7.61-16.96-16.96-16.96c-0.04,0-0.5,0.03-0.54,0.03c-1.09,0.08-2.19-0.44-2.89-1.31c-0.7-0.87-0.95-2.02-0.67-3.1
			c0.37-1.44,0.56-2.87,0.56-4.25c0-10.78-10.19-19.34-21.32-16.37c-1.15,0.3-2.38,0.01-3.27-0.78c-0.89-0.79-1.32-1.98-1.14-3.16
			c0.12-0.82,0.21-1.65,0.21-2.5c0-9.35-7.61-16.96-16.96-16.96c-7.27,0-13.73,4.64-16.06,11.54c-0.41,1.22-1.45,2.11-2.71,2.35
			c-1.25,0.24-2.55-0.23-3.37-1.22c-3.24-3.92-8-6.16-13.08-6.16c-9.35,0-16.96,7.61-16.96,16.96c0,0.97,0.1,1.96,0.29,3.03
			c0.25,1.36-0.31,2.73-1.44,3.53c-1.13,0.8-2.61,0.86-3.8,0.17c-2.59-1.5-5.52-2.29-8.48-2.29c-9.35,0-16.96,7.61-16.96,16.96
			c0,1.95-1.58,3.54-3.54,3.54c-9.35,0-16.96,7.61-16.96,16.96s7.61,16.96,16.96,16.96h19.47c1.95,0,3.54,1.58,3.54,3.54
			s-1.58,3.54-3.54,3.54h-19.47c-13.25,0-24.03-10.78-24.03-24.03c0-12.13,9.03-22.19,20.72-23.81
			c1.62-11.69,11.68-20.72,23.81-20.72c2.18,0,4.34,0.3,6.43,0.89c0.9-12.44,11.31-22.29,23.97-22.29c5.39,0,10.53,1.79,14.7,5.02
			c4.3-7.05,12-11.52,20.51-11.52c12.86,0,23.39,10.15,24.01,22.86c13.88-0.89,25.55,10.23,25.55,23.98c0,0.6-0.02,1.2-0.07,1.81
			c11.61,1.68,20.57,11.71,20.57,23.78C475.45,115.98,464.67,126.76,451.41,126.76z"/>
	</g>
	<g>
		<path class="st2" d="M351.91,95.67"/>
	</g>
	<g>
		<circle class="st1" cx="424.79" cy="97.63" r="9.98"/>
	</g>
	<g>
		<circle class="st1" cx="351.91" cy="95.67" r="9.98"/>
	</g>
	<g>
		<circle class="st1" cx="388.24" cy="181.98" r="9.98"/>
	</g>
	<g>
		<circle class="st1" cx="388.24" cy="72.19" r="9.98"/>
	</g>
	<g>
		<path class="st1" d="M388.42,127.95c-0.77,0-1.55-0.25-2.19-0.76l-36.52-28.74c-1.54-1.21-1.8-3.43-0.59-4.96
			c1.21-1.53,3.44-1.8,4.96-0.59l34.4,27.08l34.2-25.19c1.57-1.16,3.78-0.82,4.94,0.75c1.16,1.57,0.82,3.78-0.75,4.94l-36.37,26.78
			C389.9,127.72,389.16,127.95,388.42,127.95z"/>
	</g>
</g>
</svg>
