<?xml version="1.0" encoding="UTF-8" standalone="no"?>
<!-- Created with Inkscape (http://www.inkscape.org/) -->

<svg
   version="1.1"
   id="svg99"
   width="261.33334"
   height="325.33334"
   viewBox="0 0 261.33334 325.33334"
   sodipodi:docname="tree-logo.svg"
   inkscape:export-filename="/home/juan/workspace/dev/dj_personal_portfolio-project/static/portfolio/logo-large.png"
   inkscape:export-xdpi="220.41"
   inkscape:export-ydpi="220.41"
   inkscape:version="1.1.2 (0a00cf5339, 2022-02-04)"
   xmlns:inkscape="http://www.inkscape.org/namespaces/inkscape"
   xmlns:sodipodi="http://sodipodi.sourceforge.net/DTD/sodipodi-0.dtd"
   xmlns="http://www.w3.org/2000/svg"
   xmlns:svg="http://www.w3.org/2000/svg">
  <defs
     id="defs103" />
  <sodipodi:namedview
     id="namedview101"
     pagecolor="#ffffff"
     bordercolor="#666666"
     borderopacity="1.0"
     inkscape:pageshadow="2"
     inkscape:pageopacity="0.0"
     inkscape:pagecheckerboard="0"
     showgrid="false"
     inkscape:zoom="2.6834016"
     inkscape:cx="130.80413"
     inkscape:cy="162.48034"
     inkscape:window-width="2560"
     inkscape:window-height="1371"
     inkscape:window-x="1080"
     inkscape:window-y="371"
     inkscape:window-maximized="1"
     inkscape:current-layer="g105" />
  <g
     inkscape:groupmode="layer"
     inkscape:label="Image"
     id="g105">
    <path
       style="fill:#80fed8;stroke-width:1.33333"
       d="m 84.861227,323.2127 c -2.14877,-1.57121 -2.11172,-4.46319 0.64134,-50.05901 l 2.92185,-48.39146 -7.18396,-7.27432 c -6.89933,-6.98611 -7.46312,-7.27432 -14.22951,-7.27432 -6.95608,0 -7.04555,0.0513 -7.04555,4.04284 0,5.60637 -3.12246,12.52464 -6.8225,15.11625 -4.49198,3.14631 -33.83156,3.20091 -35.03485,0.0652 -1.97992,-5.15959 -0.78948,-16.19269 2.2307,-20.67435 4.94372,-7.33597 7.12853,-7.84193 33.95614,-7.86361 l 24.3295,-0.0197 5.1488,4.65164 5.1488,4.65162 0.855044,-8.18056 c 0.47027,-4.49929 0.85504,-10.79962 0.85504,-14.00072 v -5.82017 l -5.165124,0.82595 c -10.58919,1.69328 -24.27698,-5.03596 -30.85868,-15.17083 -1.85111,-2.85044 -2.41834,-2.95832 -8.96091,-1.70408 -27.08213,5.19173 -50.2216104,-20.36807 -42.4965004,-46.94151 1.19394,-4.10704 3.77122,-9.36932 5.72726,-11.69395 3.1800804,-3.77931 3.3640004,-4.52949 1.7378504,-7.08867 C 1.3593366,85.841231 -0.4600834,76.946128 3.2244266,64.271852 c 1.74872,-6.015364 3.80148,-9.292682 9.2051404,-14.696337 8.76659,-8.766592 17.4357,-12.002619 29.54935,-11.030251 l 8.31457,0.667414 0.74611,-7.229084 c 1.86162,-18.037415 17.82807,-31.67050411 36.9258,-31.52942411 10.142884,0.07493 16.590043,2.55692401 23.976893,9.23050131 l 5.25083,4.7438048 7.18839,-1.608693 c 9.57352,-2.142459 22.99713,-1.168179 29.71772,2.156898 l 5.40735,2.675346 5.77245,-3.052548 c 8.80811,-4.6578388 21.16469,-4.282623 30.23239,0.918025 7.51168,4.308216 11.60533,9.166916 14.29964,16.972039 1.73032,5.012557 1.82148,5.06418 10.2834,5.823815 16.59383,1.489638 29.94649,10.785733 36.51456,25.421342 3.27887,7.306289 3.60792,9.337481 3.07745,18.996633 -0.42164,7.677611 -1.456,12.486499 -3.56508,16.574642 l -2.9711,5.759025 3.04545,6.24096 c 3.55625,7.28773 4.81496,22.07409 2.58429,30.35817 -1.9973,7.41743 -8.92105,17.46024 -15.14666,21.97006 -4.9752,3.604 -11.68411,6.50156 -20.33463,8.7825 -3.34167,0.88111 -2.46389,1.17062 5.33333,1.75914 l 9.33334,0.70444 0.39349,8.96646 c 0.26011,5.92704 -0.26085,10.2153 -1.53684,12.65062 -1.68475,3.21545 -1.6848,4.15894 -3.6e-4,7.41628 1.27168,2.45916 1.79587,6.78505 1.53684,12.68272 l -0.39313,8.95057 -15.59894,0.37507 c -15.54986,0.37388 -15.6125,0.36292 -19.91849,-3.48447 -3.41173,-3.04839 -4.4768,-5.22886 -5.06773,-10.37505 l -0.74818,-6.51555 -7.68092,-0.40029 c -7.34511,-0.3828 -8.04461,-0.1256 -16,5.88241 -4.57549,3.4555 -8.83796,6.7345 -9.47213,7.28668 -0.64448,0.56116 0.18437,23.37567 1.87916,51.72494 2.47378,41.37979 2.71746,51.1002 1.32313,52.78027 -1.46964,1.77081 -7.16132,2.05933 -40.62433,2.05933 -29.038719,0 -39.494023,-0.42321 -41.195753,-1.66756 z m 24.437513,-24.99911 v -16 h 5.33333 5.33333 v 16 16 h 6 6 v -5.33333 c 0,-5.20635 0.11111,-5.33333 4.66667,-5.33333 4.55556,0 4.66667,0.12694 4.66667,5.33333 v 5.33333 h 8.79178 8.79179 l -0.76373,-6.33333 c -0.42004,-3.48333 -2.01855,-29.13333 -3.55222,-57 -1.53368,-27.86667 -3.10297,-52.16667 -3.48734,-54 -0.6206,-2.96016 -1.19994,-2.36308 -5.17487,5.33333 l -4.47603,8.66667 -0.0647,21.66666 -0.0647,21.66667 h -4.66665 -4.66667 V 231.5605 208.90739 l 8.24692,-16.55632 8.24691,-16.55633 -4.24691,-4.83698 c -2.33581,-2.66033 -4.24692,-5.40124 -4.24692,-6.0909 0,-0.74394 -1.49132,-0.67834 -3.66666,0.16126 -4.82028,1.86046 -17.94127,1.84591 -21.43478,-0.0237 -2.43902,-1.30531 -3.22633,-0.79483 -6.81207,4.41686 -2.22988,3.24103 -4.6191,6.09518 -5.30938,6.34258 -0.69027,0.24737 -1.67002,4.15573 -2.17722,8.68521 l -0.922169,8.23542 9.325619,4.69631 c 5.1291,2.58297 9.70161,5.6761 10.16115,6.87364 0.45953,1.19749 0.83551,9.32821 0.83551,18.06824 v 15.89095 h -5.33333 -5.33333 V 223.1272 208.04082 l -4.70904,-2.24558 c -3.57323,-1.70396 -4.826949,-1.84392 -5.197919,-0.58028 -0.52791,1.79828 -6.20577,99.27285 -6.13554,105.33197 0.0416,3.58786 0.21441,3.66666 8.042499,3.66666 h 8 z m 22.66666,-19.33332 v -12.66668 h 4.66667 4.66667 v 12.66668 12.66666 h -4.66667 -4.66667 z m -22.66666,-18.66668 v -10 h 5.33333 5.33333 v 10 10 h -5.33333 -5.33333 z m 12,-73.33332 v -7.33335 h 4.66666 4.66667 v 7.33334 7.33333 h -4.66667 -4.66666 z m -72.046923,32.75432 c 0.75914,-1.41846 1.38025,-4.11846 1.38025,-6 0,-3.36603 -0.15945,-3.42099 -9.9244,-3.42099 -8.74409,0 -10.17124,0.35243 -12,2.96335 -1.14158,1.62982 -2.0756,4.32982 -2.0756,6 0,2.90581 0.45758,3.03665 10.61975,3.03665 9.13484,0 10.81275,-0.36061 12,-2.57901 z m 180.046923,-6.65908 c 0,-6.31651 -2.9506,-8.09524 -13.42857,-8.09524 h -9.2381 v 4.4 c 0,6.45557 1.94754,7.6 12.93334,7.6 h 9.73333 z m -57.96866,-12.27646 c 6.03107,-4.51698 7.62428,-5.05646 16,-5.41765 l 9.30199,-0.40113 0.74818,-6.51554 c 0.99522,-8.66693 6.66348,-14.08772 14.93953,-14.28725 l 5.64563,-0.13612 -4.66667,-1.31941 c -2.56667,-0.72569 -7.29053,-2.24227 -10.49747,-3.37018 l -5.83081,-2.05076 -3.26644,4.17375 c -1.79656,2.29556 -6.0727,5.8234 -9.50254,7.83963 -5.16562,3.03661 -7.80606,3.66588 -15.38232,3.66588 h -9.14624 l 0.80132,6.66665 c 0.44072,3.66667 0.80654,9.25208 0.81291,12.41203 0.0133,6.45257 -0.30859,6.49292 10.04293,-1.2599 z m 55.87342,-7.24736 c 1.15239,-1.15237 2.09524,-3.85237 2.09524,-6 v -3.90477 h -9.73333 c -10.9858,0 -12.93334,1.14443 -12.93334,7.6 v 4.4 h 9.2381 c 6.62049,0 9.83178,-0.59368 11.33333,-2.09523 z M 94.471041,169.82344 c 2.99416,-1.79889 5.613619,-5.12714 7.808479,-9.92136 1.81657,-3.96789 4.08086,-7.51289 5.03176,-7.87779 0.95091,-0.36491 4.16319,0.57841 7.1384,2.09627 6.9435,3.5423 15.05587,3.50939 22.2636,-0.0903 3.13864,-1.56752 6.54067,-2.52996 7.56007,-2.13878 1.0194,0.39117 2.57455,3.11804 3.45589,6.05969 1.92702,6.43183 8.93208,12.96757 15.88532,14.82108 9.70467,2.58693 20.74107,-2.40169 24.95388,-11.27955 1.24584,-2.62538 3.14112,-5.10958 4.21176,-5.52042 1.07063,-0.41084 5.5927,0.88929 10.04905,2.88918 21.97164,9.86028 45.89002,-3.10598 47.52908,-25.76572 0.7987,-11.04192 -1.58051,-18.12783 -8.61007,-25.64299 -7.73863,-8.273205 -14.83783,-11.070635 -26.25048,-10.343935 -15.14643,0.96446 -27.93079,12.242585 -29.8168,26.303845 -0.71691,5.34493 -0.85042,5.46759 -5.95155,5.46759 h -5.2182 l 0.86604,-5.00001 c 1.2728,-7.34841 6.25296,-17.76618 11.17036,-23.36679 2.37192,-2.701465 8.05133,-6.752335 12.62092,-9.001934 6.83536,-3.36504 9.94723,-4.092559 17.55259,-4.103607 9.78888,-0.01421 18.30225,2.337229 24.53819,6.777605 4.96469,3.535171 5.1811,3.479061 7.44078,-1.929111 6.00562,-14.373462 -1.39584,-33.31709 -16.06804,-41.125338 -7.45585,-3.967848 -21.88628,-3.965255 -29.33333,0.0053 -10.0155,5.339877 -18,16.44474 -18,25.034354 0,3.056265 -0.51107,3.376159 -5.39375,3.376159 h -5.39376 l 0.8796,-5 c 2.12473,-12.077812 12.93672,-27.284022 22.09763,-31.078596 3.66128,-1.516552 4.01331,-2.153763 3.37223,-6.104246 -1.64643,-10.145707 -11.55054,-17.146707 -22.92282,-16.20363 -9.54475,0.791524 -15.74951,5.52375 -18.90995,14.422166 -2.17281,6.117723 -2.69208,6.630962 -6.70881,6.630962 -3.63475,0 -4.34887,-0.495415 -4.32443,-3.000001 0.0161,-1.65 1.20295,-5.586117 2.63742,-8.746926 l 2.60813,-5.746926 -4.91691,-2.054411 c -7.93256,-3.314438 -21.18482,-1.972965 -29.14847,2.950586 -7.54174,4.662699 -13.75394,13.794933 -14.8272,21.796711 -0.71926,5.362497 -0.8354,5.467633 -6.039529,5.467633 h -5.30616 l 0.90661,-5 c 1.31312,-7.241894 6.357829,-17.73138 11.155509,-23.195641 l 4.16238,-4.740688 -2.96386,-2.709174 c -5.32787,-4.87003 -11.240179,-7.021834 -19.230983,-6.999168 -14.73975,0.04181 -25.72255,10.304363 -26.78778,25.031047 -0.54715,7.564243 -0.42644,7.889218 5.51632,14.851345 5.72327,6.704976 10.20524,16.220564 10.20524,21.666528 0,1.869438 -1.03534,2.429148 -4.49338,2.429148 -4.21153,0 -4.60267,-0.390316 -6.23556,-6.222429 -3.1835,-11.370336 -14.88247,-20.409742 -26.4497,-20.436802 -11.82255,-0.02766 -23.996,9.548463 -26.75419,21.045918 -1.91641,7.988464 -1.03308,13.478597 3.41271,21.211068 4.13487,7.191703 4.64094,7.439463 10.33565,5.06006 2.62102,-1.095132 8.53476,-1.985286 13.14165,-1.978122 18.11433,0.02817 33.72038,13.07819 36.51125,30.53128 l 0.87239,5.45569 h -4.67879 c -4.42852,0 -4.75914,-0.31909 -6.18095,-5.96561 -2.88743,-11.46704 -14.54644,-20.70106 -26.13745,-20.70106 -24.26818,0 -37.2135704,27.59164 -21.24056,45.27185 2.54444,2.81639 6.65283,6.08239 9.12976,7.25776 5.66232,2.68695 16.71231,2.75287 22.97283,0.13706 7.10337,-2.96798 8.31812,-2.55441 11.02147,3.75224 2.7737,6.47077 9.2007,12.52469 14.5423,13.6981 1.96015,0.4306 4.16391,0.95884 4.89724,1.17386 2.64358,0.77513 9.423704,-1.02831 13.838974,-3.68102 z M 218.63207,145.8724 c 0,-3.48926 0.74488,-4.67089 3.7957,-6.02132 7.43976,-3.29316 8.87253,-11.84106 2.97353,-17.74005 -4.93805,-4.93806 -10.44612,-5.11908 -15.90847,-0.52283 -3.69308,3.10753 -4.3477,3.23702 -8.27101,1.63615 l -4.26052,-1.73847 3.66088,-4.3507 c 4.81041,-5.71686 9.95799,-8.25492 16.74217,-8.25492 15.75447,0 25.83696,15.96803 19.07716,30.21325 -2.49365,5.25499 -10.29208,11.12008 -14.78561,11.12008 -2.52373,0 -3.02383,-0.71797 -3.02383,-4.34119 z M 93.298741,129.54693 c 0,-4.44445 0.22222,-4.66667 4.66666,-4.66667 4.444449,0 4.666669,0.22222 4.666669,4.66667 0,4.44443 -0.22222,4.66667 -4.666669,4.66667 -4.44444,0 -4.66666,-0.22223 -4.66666,-4.66667 z m 22.666659,0.93356 c 0,-4.89362 5.70356,-13.55541 11.57506,-17.57862 6.23566,-4.27275 18.14538,-5.24827 24.54449,-2.01044 6.29991,3.18764 10.36584,7.12929 13.34355,12.93571 3.90238,7.60951 3.42097,10.38923 -1.79643,10.37289 -3.77909,-0.012 -4.61611,-0.68694 -6.54421,-5.27846 -4.8909,-11.64695 -18.91152,-14.13236 -27.40999,-4.85893 -2.40852,2.62816 -4.37913,5.98728 -4.37913,7.46471 0,2.18112 -0.87755,2.68625 -4.66667,2.68625 -4.22216,0 -4.66667,-0.35559 -4.66667,-3.73311 z m -91.804533,-5.58782 c 4.5449,-13.03753 22.58746,-14.22315 28.44965,-1.86949 2.74533,5.78535 2.7087,5.85708 -2.99106,5.85708 -3.56859,0 -5.49235,-0.76821 -6.67796,-2.66667 -0.91595,-1.46667 -2.85519,-2.66667 -4.30943,-2.66667 -1.45424,0 -3.39348,1.2 -4.30943,2.66667 -1.17888,1.8877 -3.10937,2.66667 -6.60861,2.66667 -4.91005,0 -4.93391,-0.0268 -3.55316,-3.98759 z m 58.4712,-19.38857 c 0,-3.88022 4.14944,-11.971929 8.381484,-16.344509 2.64412,-2.731936 6.89485,-5.15729 11.265749,-6.427946 6.32413,-1.838474 7.72951,-1.83418 14.18799,0.04335 8.42877,2.450311 15.85879,9.719526 18.06862,17.677545 2.00428,7.21788 1.96228,7.30014 -3.49338,6.84153 -4.2733,-0.35921 -5.06625,-0.97101 -6.00947,-4.6366 -2.7109,-10.535105 -17.64379,-14.941294 -26.209689,-7.733568 -2.20731,1.857333 -4.69988,5.457318 -5.53904,7.999988 -1.34566,4.07742 -2.06429,4.62303 -6.089004,4.62303 -3.20986,0 -4.56326,-0.60587 -4.56326,-2.04282 z M 111.31605,73.213597 c 2.29424,-7.688865 10.02482,-15.43996 17.68939,-17.736323 11.78903,-3.53208 26.03551,2.811751 31.0327,13.81859 3.80237,8.375101 3.44692,10.251067 -1.9423,10.251067 -3.90008,0 -4.74385,-0.595563 -6.01666,-4.246755 -2.10846,-6.048332 -5.1099,-8.892991 -11.07896,-10.500296 -3.72739,-1.003682 -6.49826,-0.976775 -9.74463,0.09463 -5.15946,1.70277 -11.29019,8.266753 -11.29019,12.088054 0,2.0977 -0.95896,2.564367 -5.26956,2.564367 h -5.26955 z M 39.965397,69.54693 c 0,-4.444444 0.22222,-4.666666 4.66667,-4.666666 4.44444,0 4.66667,0.222222 4.66667,4.666666 0,4.444445 -0.22223,4.666667 -4.66667,4.666667 -4.44445,0 -4.66667,-0.222222 -4.66667,-4.666667 z m 168.000013,0 c 0,-4.444444 0.22222,-4.666666 4.66666,-4.666666 4.44444,0 4.66667,0.222222 4.66667,4.666666 0,4.444445 -0.22223,4.666667 -4.66667,4.666667 -4.44444,0 -4.66666,-0.222222 -4.66666,-4.666667 z M 77.298737,32.213596 c 0,-4.444444 0.22222,-4.666666 4.66666,-4.666666 4.44445,0 4.66667,0.222222 4.66667,4.666666 0,4.444444 -0.22222,4.666667 -4.66667,4.666667 -4.44444,0 -4.66666,-0.222223 -4.66666,-4.666667 z"
       id="path147" />
  </g>
</svg>
